# xmcd
#
# Track frame offsets: 
#        150
#        14091
#        29207
#        47950
#        63477
#        84023
#        101919
#        116205
#        135440
#
# Disc length: 2230 seconds
#
# Revision: 2
# Processed by: cddbd v1.5.2PL0 Copyright (c) Steve Scherf et al.
# Submitted via: ExactAudioCopy v0.99pb5
#
DISCID=8008b409
DTITLE=Sean Chambers - Strong Temptation
DYEAR=1998
DGENRE=Blues, Blues Rock
TTITLE0=Strong Temptation
TTITLE1=Me and My Guitar
TTITLE2=Mean Town Blues
TTITLE3=Danger Zone
TTITLE4=Crazy For Loving You
TTITLE5=Shame, Shame, Shame
TTITLE6=Dixie 45
TTITLE7=Mojo Down The Road
TTITLE8=You Was Wrong
EXTD=YEAR: 1995 ID3G: 0
EXTT0=
EXTT1=
EXTT2=
EXTT3=
EXTT4=
EXTT5=
EXTT6=
EXTT7=
EXTT8=
PLAYORDER=
